<svg width="22" height="22" viewBox="0 0 22 22" fill="none" xmlns="http://www.w3.org/2000/svg">
<g id="Frame 60">
<path id="Vector" fill-rule="evenodd" clip-rule="evenodd" d="M16.665 4.12465C15.73 4.06965 13.805 4.01465 10.89 4.01465H10.505C7.70001 4.01465 5.83004 4.06965 4.89504 4.17965C3.63004 4.28965 2.75001 4.61965 2.25501 5.05965C1.81501 5.44465 1.48502 6.15965 1.37502 7.09465C1.32002 7.69965 1.26501 8.96465 1.26501 10.8896V11.1646C1.26501 12.9796 1.32001 14.2446 1.43001 14.8496C1.59501 15.7296 1.87003 16.3896 2.42003 16.7746C2.97004 17.2146 3.90502 17.4896 5.22502 17.5996C6.16002 17.6546 8.08502 17.7096 11 17.7096H11.385C14.19 17.7096 16.06 17.6546 16.995 17.5446C18.26 17.4346 19.14 17.1046 19.635 16.6646C20.075 16.2796 20.405 15.5646 20.515 14.6296C20.57 14.0246 20.625 12.7596 20.625 10.8346V10.5596C20.625 8.74465 20.57 7.47965 20.46 6.87465C20.295 5.99465 20.02 5.33465 19.47 4.94965C18.92 4.50965 17.985 4.23465 16.665 4.12465ZM14.52 10.8896L8.47004 14.5196V7.25965L14.52 10.8896Z" fill="#F6F5EF"/>
</g>
</svg>
