<svg xmlns="http://www.w3.org/2000/svg" aria-hidden="true" style="position:absolute;width:0;height:0;overflow:hidden">
  <defs>
  <!-- mobile menu -->
    <symbol id="icon-mobile-close" viewBox="0 0 32 32">
      <path fill="none" stroke="#f6f5ef" stroke-linecap="round" stroke-linejoin="round" stroke-width="1.733" d="M24 8 8 24M8 8l16 16" style="stroke:var(--color1, #f6f5ef)"/>
    </symbol>

  <symbol id="icon-burger-menu" viewBox="0 0 32 32">
      <path  d="M2.667 7.993c0-.733.595-1.327 1.327-1.327h10.68a1.326 1.326 0 0 1 0 2.654H3.994a1.326 1.326 0 0 1-1.327-1.327zm0 8.007c0-.733.595-1.327 1.327-1.327h24.013a1.326 1.326 0 0 1 0 2.654H3.994A1.326 1.326 0 0 1 2.667 16zm1.326 6.68a1.326 1.326 0 0 0 0 2.654h16.013a1.326 1.326 0 0 0 0-2.654H3.993z" />
    </symbol>

      
     
<!-- logo -->
<symbol id="logo" width="20" height="23" viewBox="0 0 34 32" x="0" y="0">
 <path fill="#93abae" d="M15.089 11.089v11.089h2.016v-22.179h-2.016v11.089z"></path>
 <path fill="#93abae" d="M19.122 10.764v7.785l0.345-0.039c2.25-0.28 5.359-0.208 7.46 0.169 1.236 0.221 1.476 0.228 1.672 0.046 0.28-0.26 0.293-0.397 0.15-1.223-1.015-5.691-4.156-10.66-8.891-14.068-0.28-0.202-0.566-0.39-0.624-0.416-0.104-0.039-0.111 0.442-0.111 7.746z"></path>
 <path fill="#93abae" d="M12.859 8.696c-0.267 0.468-1.080 1.639-1.633 2.374-1.704 2.263-4.085 4.592-6.569 6.426-0.709 0.52-0.872 0.761-0.748 1.086 0.039 0.098 0.13 0.247 0.202 0.332l0.137 0.143h8.826v-5.301c0-2.914-0.013-5.301-0.033-5.301s-0.104 0.111-0.182 0.241z"></path>
 <path fill="#93abae" d="M0.859 24.358c-0.332 0.273-0.332 0.488-0.006 1.112l0.28 0.546h31.311l0.345-0.468c0.293-0.39 0.345-0.507 0.345-0.728-0.007-0.202-0.052-0.299-0.215-0.442l-0.202-0.182h-31.662l-0.195 0.163z"></path>
 <path fill="#93abae" d="M2.276 28.104c0 0.098 1.392 2.738 1.646 3.115 0.104 0.163 0.286 0.39 0.39 0.507l0.202 0.208h21.405l0.65-0.319c0.722-0.358 1.535-0.885 2.179-1.405 0.475-0.39 1.639-1.567 1.912-1.938l0.182-0.241h-14.283c-10.686 0-14.283 0.020-14.283 0.072z"></path>
 </symbol>

<!-- social media -->
   <symbol id="youtube" viewBox="0 0 32 32">
      <path fill="#f6f5ef" d="M24.24 6c-1.36-.08-4.16-.16-8.4-.16h-.56c-4.08 0-6.8.08-8.16.24-1.84.16-3.12.64-3.84 1.28-.64.56-1.12 1.6-1.28 2.96-.08.88-.16 2.72-.16 5.52v.4c0 2.64.08 4.48.24 5.36.24 1.28.64 2.24 1.44 2.8.8.64 2.16 1.04 4.08 1.2 1.36.08 4.16.16 8.4.16h.56c4.08 0 6.8-.08 8.16-.24 1.84-.16 3.12-.64 3.84-1.28.64-.56 1.12-1.6 1.28-2.96.08-.88.16-2.72.16-5.52v-.4c0-2.64-.08-4.48-.24-5.36-.24-1.28-.64-2.24-1.44-2.8-.8-.64-2.16-1.04-4.08-1.2zm-3.12 9.839-8.8 5.28v-10.56l8.8 5.28z" style="fill:var(--color1, #f6f5ef)"/>
    </symbol>

    <symbol id="instagram" viewBox="0 0 32 32">
      <path fill="#f6f5ef" d="M23.983 6.229a1.794 1.794 0 0 0-1.758 2.141 1.794 1.794 0 0 0 2.443 1.306 1.79 1.79 0 0 0 1.106-1.656 1.792 1.792 0 0 0-1.792-1.792zm6.869 3.614a11.33 11.33 0 0 0-.687-3.629 7.38 7.38 0 0 0-1.732-2.643 7.01 7.01 0 0 0-2.643-1.717 10.905 10.905 0 0 0-3.629-.702c-1.583-.09-2.091-.09-6.152-.09s-4.57 0-6.152.09a10.905 10.905 0 0 0-3.629.702 7.135 7.135 0 0 0-2.643 1.717 7.01 7.01 0 0 0-1.717 2.643 10.905 10.905 0 0 0-.702 3.629c-.09 1.583-.09 2.091-.09 6.153s0 4.57.09 6.152c.026 1.241.263 2.468.702 3.629.365 1 .952 1.904 1.717 2.643a7.135 7.135 0 0 0 2.643 1.717c1.161.439 2.388.676 3.629.702 1.583.09 2.091.09 6.152.09s4.57 0 6.152-.09a10.905 10.905 0 0 0 3.629-.702c1-.365 1.904-.952 2.643-1.717a7.243 7.243 0 0 0 1.732-2.643 11.33 11.33 0 0 0 .687-3.629c0-1.583.09-2.091.09-6.152s0-4.57-.09-6.153zm-2.688 12.126a8.39 8.39 0 0 1-.508 2.778 4.556 4.556 0 0 1-1.12 1.717 4.763 4.763 0 0 1-1.717 1.12 8.39 8.39 0 0 1-2.778.508c-1.493.075-2.046.09-5.973.09s-4.48 0-5.973-.09a8.566 8.566 0 0 1-2.897-.448 4.885 4.885 0 0 1-1.643-1.12 4.48 4.48 0 0 1-1.105-1.717 8.25 8.25 0 0 1-.597-2.837c0-1.493-.09-2.046-.09-5.973s0-4.48.09-5.973a8.281 8.281 0 0 1 .523-2.837 4.482 4.482 0 0 1 1.18-1.643 4.7 4.7 0 0 1 1.643-1.195 8.58 8.58 0 0 1 2.837-.508c1.493 0 2.046-.09 5.973-.09s4.48 0 5.973.09a8.39 8.39 0 0 1 2.778.508 4.56 4.56 0 0 1 1.777 1.195c.489.459.872 1.02 1.12 1.643a8.37 8.37 0 0 1 .508 2.837c.075 1.493.09 2.046.09 5.973s-.015 4.48-.09 5.973zM16.008 8.335a7.667 7.667 0 0 0-7.067 4.739 7.66 7.66 0 0 0 10.017 9.997 7.657 7.657 0 0 0 4.726-7.077 7.645 7.645 0 0 0-7.675-7.66zm0 12.634a4.979 4.979 0 0 1-4.595-3.07 4.975 4.975 0 0 1 3.624-6.78 4.974 4.974 0 0 1 5.564 6.781 4.965 4.965 0 0 1-2.691 2.691 4.97 4.97 0 0 1-1.903.379z" style="fill:var(--color1, #f6f5ef)"/>
    </symbol>

    <symbol id="facebook" viewBox="0 0 18 32">
      <path fill="#f6f5ef" d="M14.45 5.602h2.924V.655a40.727 40.727 0 0 0-4.262-.218c-4.231 0-7.124 2.582-7.124 7.311v4.076H1.212v5.538h4.776v14.187h5.724V17.362h4.76l.716-5.538h-5.476V8.293c0-1.633.436-2.691 2.738-2.691z" style="fill:var(--color1, #f6f5ef)"/>
    </symbol>

    <!--arrow  -->
    <symbol id="arrow_up" viewBox="0 0 17 32">
      <path fill="#f6f5ef" d="M0 9.778 8.533 0l8.533 9.778h-7.055V32H7.055V9.778H0z" style="fill:var(--color1, #f6f5ef)"/>
    </symbol>

    <symbol id="arrow_right" viewBox="0 0 72 32">
      <path fill="#f6f5ef" d="m50 0 22 16-22 16V18.771H0v-5.543h50V-.001z" style="fill:var(--color1, #f6f5ef)"/>
    </symbol>

    <symbol id="arrow_left" viewBox="0 0 72 32">
      <path fill="#f6f5ef" d="M22 0 0 16l22 16V18.771h50v-5.543H22V-.001z" style="fill:var(--color1, #f6f5ef)"/>
    </symbol>
    <!-- footer -->
    <symbol id="icon-youtube" viewBox="0 0 32 32">
    <path fill="#f6f5ef" style="fill: var(--color1, #f6f5ef)" d="M24.24 6c-1.36-0.080-4.16-0.16-8.4-0.16h-0.56c-4.080 0-6.8 0.080-8.16 0.24-1.84 0.16-3.12 0.64-3.84 1.28-0.64 0.56-1.12 1.6-1.28 2.96-0.080 0.88-0.16 2.72-0.16 5.52v0.4c0 2.64 0.080 4.48 0.24 5.36 0.24 1.28 0.64 2.24 1.44 2.8 0.8 0.64 2.16 1.040 4.080 1.2 1.36 0.080 4.16 0.16 8.4 0.16h0.56c4.080 0 6.8-0.080 8.16-0.24 1.84-0.16 3.12-0.64 3.84-1.28 0.64-0.56 1.12-1.6 1.28-2.96 0.080-0.88 0.16-2.72 0.16-5.52v-0.4c0-2.64-0.080-4.48-0.24-5.36-0.24-1.28-0.64-2.24-1.44-2.8-0.8-0.64-2.16-1.040-4.080-1.2zM21.12 15.839l-8.8 5.28v-10.56l8.8 5.28z"></path>
    </symbol>
    

    <!--Favicon-->

    <symbol id="icon-sailing-boat-boat-svgrepo-com" viewBox="0 0 32 32">
      <path fill="#aa6455" style="fill:var(--color1, #aa6455)" d="M15.981 5.479c-5.81.011-10.512 4.73-10.501 10.54s4.73 10.512 10.54 10.501c5.81-.011 10.512-4.73 10.501-10.54s-4.73-10.512-10.54-10.501zm.036 19.097a8.577 8.577 0 1 1-.033-17.153 8.577 8.577 0 0 1 .033 17.153z"/>
      <path fill="#b9785f" style="fill:var(--color2, #b9785f)" d="m14.993 12.996-.004-2.004a1.003 1.003 0 0 1 2.004-.004l.004 2.004zM15.981 5.479a1.003 1.003 0 0 1-1.004-1l-.006-3.006a1.003 1.003 0 0 1 2.004-.004l.006 3.006a1.003 1.003 0 0 1-1 1.004zM15.004 19.008l.004 2.004a1.002 1.002 0 1 0 2.004-.004l-.004-2.004zM16.02 26.52a1.003 1.003 0 0 0-1 1.004l.006 3.006a1.002 1.002 0 1 0 2.004-.004l-.006-3.006a1.003 1.003 0 0 0-1.004-1z"/>
      <path fill="#ffd782" style="fill:var(--color3, #ffd782)" d="M19.007 16a3.006 3.006 0 1 1-6.012 0 3.006 3.006 0 0 1 6.012 0z"/>
      <path fill="#ffc36e" style="fill:var(--color4, #ffc36e)" d="M17.692 16a1.69 1.69 0 1 1-3.382 0 1.69 1.69 0 0 1 3.382 0z"/>
      <path fill="#b9785f" style="fill:var(--color2, #b9785f)" d="m12.895 15.371-1.737-.999a1.001 1.001 0 1 1 .999-1.737l1.737.999zM6.88 10.757c-.276.48-.888.645-1.368.369L2.906 9.628a1.001 1.001 0 1 1 .999-1.737l2.606 1.498c.48.276.645.888.369 1.368zM18.107 18.367l1.737.999a1.002 1.002 0 0 0 .999-1.737l-1.737-.999zM25.121 21.243c-.276.48-.11 1.092.369 1.368l2.606 1.498a1.002 1.002 0 0 0 .999-1.737l-2.606-1.498a1.002 1.002 0 0 0-1.368.369zM19.103 15.359l1.734-1.005a1.001 1.001 0 1 0-1.005-1.733l-1.734 1.005zM25.102 10.723c.278.479.891.642 1.369.364l2.6-1.508a1.001 1.001 0 1 0-1.005-1.733l-2.6 1.508a1.001 1.001 0 0 0-.364 1.369zM13.903 18.375l-1.734 1.005a1.002 1.002 0 1 1-1.005-1.733l1.734-1.005zM6.899 21.277a1 1 0 0 1-.364 1.369l-2.6 1.508a1.002 1.002 0 1 1-1.005-1.733l2.6-1.508a1 1 0 0 1 1.369.364z"/>
      <path style="fill:var(--color5, #000)" d="M23.923 11.756a.464.464 0 0 0-.096-.123.47.47 0 0 0-.695-.312l-1.828 1.06a1.471 1.471 0 0 0-1.708-.168l-1.612.935a3.492 3.492 0 0 0-.517-.299l-.003-1.863a1.474 1.474 0 0 0-1.005-1.393l-.003-1.629a8.063 8.063 0 0 1 3.32.925.47.47 0 1 0 .441-.829 9.004 9.004 0 0 0-4.216-1.048h-.017c-2.4.004-4.655.944-6.349 2.644s-2.625 3.959-2.62 6.359a8.917 8.917 0 0 0 1.729 5.283.468.468 0 0 0 .656.101.47.47 0 0 0 .102-.656 9.496 9.496 0 0 1-.215-.31l1.41-.818a1.471 1.471 0 0 0 1.709.168l1.612-.935c.163.114.336.214.518.299l.004 1.863a1.474 1.474 0 0 0 1.005 1.393l.003 1.629a8.056 8.056 0 0 1-4.72-1.87.47.47 0 0 0-.605.719 8.993 8.993 0 0 0 5.778 2.104h.017c2.4-.004 4.655-.944 6.349-2.644s2.625-3.959 2.62-6.359a9.005 9.005 0 0 0-1.063-4.227zm.124 4.229a8.02 8.02 0 0 1-.845 3.614l-1.415-.814a1.47 1.47 0 0 0-.71-1.564l-1.614-.928c.008-.099.013-.198.013-.299s-.006-.201-.014-.299l1.611-.934a1.47 1.47 0 0 0 .704-1.567l1.41-.818a8.078 8.078 0 0 1 .861 3.609zm-8.042 2.551-.005.47v-.47a2.54 2.54 0 0 1-2.536-2.531c-.001-.677.261-1.315.739-1.795s1.115-.745 1.797-.746a2.54 2.54 0 0 1 2.536 2.531 2.54 2.54 0 0 1-2.531 2.541zm-4.809-5.298a.529.529 0 0 1 .727-.197l1.368.786a3.48 3.48 0 0 0-.532.922l-1.367-.786a.533.533 0 0 1-.197-.727zm8.047 4.012 1.366.785a.532.532 0 0 1 .197.727.532.532 0 0 1-.727.197l-1.368-.786a3.48 3.48 0 0 0 .532-.922zm.824-4.224a.533.533 0 0 1 .728.193.533.533 0 0 1-.193.728l-1.364.791a3.49 3.49 0 0 0-.535-.92l1.365-.791zm-3.541-.462a3.51 3.51 0 0 0-.526-.04h-.007c-.181 0-.359.015-.532.042l-.003-1.575a.533.533 0 0 1 .531-.534h.001a.53.53 0 0 1 .533.531l.003 1.575zM10.3 10.321a7.99 7.99 0 0 1 5.216-2.353l.003 1.628a1.47 1.47 0 0 0-.999 1.396l.004 1.862a3.594 3.594 0 0 0-.517.301l-1.616-.929a1.46 1.46 0 0 0-1.117-.145c-.223.06-.423.17-.591.319l-1.415-.813a8.166 8.166 0 0 1 1.032-1.268zm-2.346 5.694a8.02 8.02 0 0 1 .845-3.614l1.415.814a1.47 1.47 0 0 0 .71 1.564l1.614.928c-.008.099-.013.198-.013.299s.006.201.014.299l-1.611.934c-.56.325-.825.964-.704 1.566l-1.411.818a7.985 7.985 0 0 1-.86-3.609zm3.98 2.958a.53.53 0 0 1-.728-.193.533.533 0 0 1 .194-.727l1.364-.791c.131.335.313.645.535.92l-1.365.791zm3.541.463a3.5 3.5 0 0 0 .526.04h.007c.181 0 .359-.015.532-.042l.003 1.575a.533.533 0 0 1-.531.534h-.001a.53.53 0 0 1-.533-.531l-.003-1.575zm6.226 2.243a7.99 7.99 0 0 1-5.216 2.353l-.003-1.628a1.47 1.47 0 0 0 .999-1.396l-.003-1.862c.181-.086.354-.187.517-.301l1.616.929a1.462 1.462 0 0 0 1.708-.175l1.415.813a8.166 8.166 0 0 1-1.032 1.268z"/>
      <path style="fill:var(--color5, #000)" d="M21.174 9.836c.349.293.675.618.97.967a.467.467 0 0 0 .662.055.47.47 0 0 0 .055-.662 9.121 9.121 0 0 0-1.083-1.079.47.47 0 0 0-.604.719z"/>
      <path style="fill:var(--color5, #000)" d="m29.329 21.965-2.606-1.498a1.479 1.479 0 0 0-.594-.189c.567-1.342.864-2.798.861-4.299s-.305-2.955-.877-4.296c.208-.021.411-.085.593-.191l2.6-1.508a1.473 1.473 0 0 0-.739-2.745 1.47 1.47 0 0 0-.737.199l-2.6 1.508c-.189.11-.344.255-.463.423a11.09 11.09 0 0 0-1.003-1.149 10.907 10.907 0 0 0-6.447-3.133 1.46 1.46 0 0 0 .133-.613l-.006-3.006A1.475 1.475 0 0 0 15.97-.001a1.474 1.474 0 0 0-1.469 1.474l.006 3.006c0 .218.049.426.135.612a10.901 10.901 0 0 0-6.428 3.151c-.365.366-.7.754-1.006 1.16a1.462 1.462 0 0 0-.464-.422L4.138 7.482a1.473 1.473 0 0 0-2.009.542c-.196.341-.247.737-.145 1.117s.347.696.687.892l2.606 1.498c.183.105.386.169.594.189-.567 1.342-.864 2.798-.861 4.299s.305 2.955.877 4.296a1.472 1.472 0 0 0-.593.191l-2.6 1.508c-.34.197-.583.515-.684.895s-.048.776.149 1.116a1.47 1.47 0 0 0 2.011.534l2.6-1.508c.189-.11.344-.256.463-.423.305.402.64.787 1.003 1.149a10.905 10.905 0 0 0 6.447 3.133 1.46 1.46 0 0 0-.133.613l.006 3.006c.002.81.662 1.469 1.472 1.469h.003a1.474 1.474 0 0 0 1.469-1.474l-.006-3.006c0-.218-.049-.426-.135-.612a10.901 10.901 0 0 0 6.428-3.151c.365-.366.7-.754 1.006-1.16.121.17.277.315.464.422l2.606 1.498c.223.128.476.196.732.196a1.473 1.473 0 0 0 .735-2.747zM25.701 9.759l2.6-1.508a.531.531 0 0 1 .727.193c.147.254.06.58-.193.728l-2.6 1.508a.536.536 0 0 1-.693-.142l-.061-.105a.533.533 0 0 1 .221-.674zm-10.254-5.28-.006-3.006a.533.533 0 0 1 1.064-.003l.006 3.006a.533.533 0 0 1-.531.534h-.001a.532.532 0 0 1-.532-.531zM6.01 10.79a.525.525 0 0 1-.264-.071L3.14 9.221a.529.529 0 0 1-.197-.727.534.534 0 0 1 .726-.196l2.606 1.498a.533.533 0 0 1 .223.673l-.062.107a.536.536 0 0 1-.427.214zm.29 11.45-2.6 1.508a.531.531 0 0 1-.781-.597.53.53 0 0 1 .247-.324l2.6-1.508a.531.531 0 0 1 .693.142l.061.105a.533.533 0 0 1-.221.674zm9.729 8.821-.001.47v-.47a.532.532 0 0 1-.532-.531l-.006-3.006a.533.533 0 0 1 1.064-.003l.006 3.006a.532.532 0 0 1-.531.533zm7.092-7.967a9.985 9.985 0 0 1-7.101 2.957h-.019c-5.531 0-10.04-4.5-10.05-10.032a9.997 9.997 0 0 1 1.282-4.94c.019-.029.038-.058.055-.088.015-.027.03-.054.043-.082a10.14 10.14 0 0 1 1.55-2.003 9.985 9.985 0 0 1 7.101-2.957h.019c5.531 0 10.04 4.5 10.05 10.032a9.997 9.997 0 0 1-1.282 4.94 1.613 1.613 0 0 0-.055.088c-.015.027-.03.054-.043.082a10.14 10.14 0 0 1-1.55 2.003zm5.937.412a.534.534 0 0 1-.726.196l-2.606-1.498a.532.532 0 0 1-.223-.673l.062-.106a.534.534 0 0 1 .691-.144l2.606 1.498a.534.534 0 0 1 .196.727z"/>
    </symbol>

  </defs>
</svg>





