<svg xmlns="http://www.w3.org/2000/svg" aria-hidden="true" style="position:absolute;width:0;height:0;overflow:hidden">
  <defs>
  <!-- mobile menu -->
    <symbol id="icon-mobile-close" viewBox="0 0 32 32">
      <path fill="none" stroke="#f6f5ef" stroke-linecap="round" stroke-linejoin="round" stroke-width="1.733" d="M24 8 8 24M8 8l16 16" style="stroke:var(--color1, #f6f5ef)"/>
    </symbol>

  <symbol id="icon-burger-menu" viewBox="0 0 32 32">
      <path  d="M2.667 7.993c0-.733.595-1.327 1.327-1.327h10.68a1.326 1.326 0 0 1 0 2.654H3.994a1.326 1.326 0 0 1-1.327-1.327zm0 8.007c0-.733.595-1.327 1.327-1.327h24.013a1.326 1.326 0 0 1 0 2.654H3.994A1.326 1.326 0 0 1 2.667 16zm1.326 6.68a1.326 1.326 0 0 0 0 2.654h16.013a1.326 1.326 0 0 0 0-2.654H3.993z" />
    </symbol>

      
     
<!-- logo -->
<symbol id="logo" width="20" height="23" viewBox="0 0 34 32" x="0" y="0">
 <path fill="#93abae" d="M15.089 11.089v11.089h2.016v-22.179h-2.016v11.089z"></path>
 <path fill="#93abae" d="M19.122 10.764v7.785l0.345-0.039c2.25-0.28 5.359-0.208 7.46 0.169 1.236 0.221 1.476 0.228 1.672 0.046 0.28-0.26 0.293-0.397 0.15-1.223-1.015-5.691-4.156-10.66-8.891-14.068-0.28-0.202-0.566-0.39-0.624-0.416-0.104-0.039-0.111 0.442-0.111 7.746z"></path>
 <path fill="#93abae" d="M12.859 8.696c-0.267 0.468-1.080 1.639-1.633 2.374-1.704 2.263-4.085 4.592-6.569 6.426-0.709 0.52-0.872 0.761-0.748 1.086 0.039 0.098 0.13 0.247 0.202 0.332l0.137 0.143h8.826v-5.301c0-2.914-0.013-5.301-0.033-5.301s-0.104 0.111-0.182 0.241z"></path>
 <path fill="#93abae" d="M0.859 24.358c-0.332 0.273-0.332 0.488-0.006 1.112l0.28 0.546h31.311l0.345-0.468c0.293-0.39 0.345-0.507 0.345-0.728-0.007-0.202-0.052-0.299-0.215-0.442l-0.202-0.182h-31.662l-0.195 0.163z"></path>
 <path fill="#93abae" d="M2.276 28.104c0 0.098 1.392 2.738 1.646 3.115 0.104 0.163 0.286 0.39 0.39 0.507l0.202 0.208h21.405l0.65-0.319c0.722-0.358 1.535-0.885 2.179-1.405 0.475-0.39 1.639-1.567 1.912-1.938l0.182-0.241h-14.283c-10.686 0-14.283 0.020-14.283 0.072z"></path>
 </symbol>

<!-- social media -->
   <symbol id="youtube" viewBox="0 0 32 32">
      <path fill="#f6f5ef" d="M24.24 6c-1.36-.08-4.16-.16-8.4-.16h-.56c-4.08 0-6.8.08-8.16.24-1.84.16-3.12.64-3.84 1.28-.64.56-1.12 1.6-1.28 2.96-.08.88-.16 2.72-.16 5.52v.4c0 2.64.08 4.48.24 5.36.24 1.28.64 2.24 1.44 2.8.8.64 2.16 1.04 4.08 1.2 1.36.08 4.16.16 8.4.16h.56c4.08 0 6.8-.08 8.16-.24 1.84-.16 3.12-.64 3.84-1.28.64-.56 1.12-1.6 1.28-2.96.08-.88.16-2.72.16-5.52v-.4c0-2.64-.08-4.48-.24-5.36-.24-1.28-.64-2.24-1.44-2.8-.8-.64-2.16-1.04-4.08-1.2zm-3.12 9.839-8.8 5.28v-10.56l8.8 5.28z" style="fill:var(--color1, #f6f5ef)"/>
    </symbol>

    <symbol id="instagram" viewBox="0 0 32 32">
      <path fill="#f6f5ef" d="M23.983 6.229a1.794 1.794 0 0 0-1.758 2.141 1.794 1.794 0 0 0 2.443 1.306 1.79 1.79 0 0 0 1.106-1.656 1.792 1.792 0 0 0-1.792-1.792zm6.869 3.614a11.33 11.33 0 0 0-.687-3.629 7.38 7.38 0 0 0-1.732-2.643 7.01 7.01 0 0 0-2.643-1.717 10.905 10.905 0 0 0-3.629-.702c-1.583-.09-2.091-.09-6.152-.09s-4.57 0-6.152.09a10.905 10.905 0 0 0-3.629.702 7.135 7.135 0 0 0-2.643 1.717 7.01 7.01 0 0 0-1.717 2.643 10.905 10.905 0 0 0-.702 3.629c-.09 1.583-.09 2.091-.09 6.153s0 4.57.09 6.152c.026 1.241.263 2.468.702 3.629.365 1 .952 1.904 1.717 2.643a7.135 7.135 0 0 0 2.643 1.717c1.161.439 2.388.676 3.629.702 1.583.09 2.091.09 6.152.09s4.57 0 6.152-.09a10.905 10.905 0 0 0 3.629-.702c1-.365 1.904-.952 2.643-1.717a7.243 7.243 0 0 0 1.732-2.643 11.33 11.33 0 0 0 .687-3.629c0-1.583.09-2.091.09-6.152s0-4.57-.09-6.153zm-2.688 12.126a8.39 8.39 0 0 1-.508 2.778 4.556 4.556 0 0 1-1.12 1.717 4.763 4.763 0 0 1-1.717 1.12 8.39 8.39 0 0 1-2.778.508c-1.493.075-2.046.09-5.973.09s-4.48 0-5.973-.09a8.566 8.566 0 0 1-2.897-.448 4.885 4.885 0 0 1-1.643-1.12 4.48 4.48 0 0 1-1.105-1.717 8.25 8.25 0 0 1-.597-2.837c0-1.493-.09-2.046-.09-5.973s0-4.48.09-5.973a8.281 8.281 0 0 1 .523-2.837 4.482 4.482 0 0 1 1.18-1.643 4.7 4.7 0 0 1 1.643-1.195 8.58 8.58 0 0 1 2.837-.508c1.493 0 2.046-.09 5.973-.09s4.48 0 5.973.09a8.39 8.39 0 0 1 2.778.508 4.56 4.56 0 0 1 1.777 1.195c.489.459.872 1.02 1.12 1.643a8.37 8.37 0 0 1 .508 2.837c.075 1.493.09 2.046.09 5.973s-.015 4.48-.09 5.973zM16.008 8.335a7.667 7.667 0 0 0-7.067 4.739 7.66 7.66 0 0 0 10.017 9.997 7.657 7.657 0 0 0 4.726-7.077 7.645 7.645 0 0 0-7.675-7.66zm0 12.634a4.979 4.979 0 0 1-4.595-3.07 4.975 4.975 0 0 1 3.624-6.78 4.974 4.974 0 0 1 5.564 6.781 4.965 4.965 0 0 1-2.691 2.691 4.97 4.97 0 0 1-1.903.379z" style="fill:var(--color1, #f6f5ef)"/>
    </symbol>

    <symbol id="facebook" viewBox="0 0 18 32">
      <path fill="#f6f5ef" d="M14.45 5.602h2.924V.655a40.727 40.727 0 0 0-4.262-.218c-4.231 0-7.124 2.582-7.124 7.311v4.076H1.212v5.538h4.776v14.187h5.724V17.362h4.76l.716-5.538h-5.476V8.293c0-1.633.436-2.691 2.738-2.691z" style="fill:var(--color1, #f6f5ef)"/>
    </symbol>

    <!--arrow  -->
    <symbol id="arrow_up" viewBox="0 0 17 32">
      <path fill="#f6f5ef" d="M0 9.778 8.533 0l8.533 9.778h-7.055V32H7.055V9.778H0z" style="fill:var(--color1, #f6f5ef)"/>
    </symbol>

    <symbol id="arrow_right" viewBox="0 0 72 32">
      <path fill="#f6f5ef" d="m50 0 22 16-22 16V18.771H0v-5.543h50V-.001z" style="fill:var(--color1, #f6f5ef)"/>
    </symbol>

    <symbol id="arrow_left" viewBox="0 0 72 32">
      <path fill="#f6f5ef" d="M22 0 0 16l22 16V18.771h50v-5.543H22V-.001z" style="fill:var(--color1, #f6f5ef)"/>
    </symbol>
    <!-- footer -->
    <symbol id="icon-youtube" viewBox="0 0 32 32">
    <path fill="#f6f5ef" style="fill: var(--color1, #f6f5ef)" d="M24.24 6c-1.36-0.080-4.16-0.16-8.4-0.16h-0.56c-4.080 0-6.8 0.080-8.16 0.24-1.84 0.16-3.12 0.64-3.84 1.28-0.64 0.56-1.12 1.6-1.28 2.96-0.080 0.88-0.16 2.72-0.16 5.52v0.4c0 2.64 0.080 4.48 0.24 5.36 0.24 1.28 0.64 2.24 1.44 2.8 0.8 0.64 2.16 1.040 4.080 1.2 1.36 0.080 4.16 0.16 8.4 0.16h0.56c4.080 0 6.8-0.080 8.16-0.24 1.84-0.16 3.12-0.64 3.84-1.28 0.64-0.56 1.12-1.6 1.28-2.96 0.080-0.88 0.16-2.72 0.16-5.52v-0.4c0-2.64-0.080-4.48-0.24-5.36-0.24-1.28-0.64-2.24-1.44-2.8-0.8-0.64-2.16-1.040-4.080-1.2zM21.12 15.839l-8.8 5.28v-10.56l8.8 5.28z"></path>
    </symbol>
    <!-- Card svg igon -->
    <symbol id="icon-img-yaht" viewBox="0 0 36 32">
    <path d="M36.059 28.977v-27.353c0-0.897-0.727-1.624-1.624-1.624h-32.812c-0.897 0-1.624 0.727-1.624 1.624v28.753c0 0.897 0.727 1.624 1.624 1.624h20.105c0.488 0 0.95-0.219 1.258-0.597l0.167-0.205c0.308-0.378 0.77-0.597 1.258-0.597h10.023c0.897 0 1.624-0.727 1.624-1.624z"></path>
    </symbol>
    <symbol id="icon-yaht-smol" viewBox="0 0 34 32">
    <path d="M34.104 4.057v25.286c0 1.468-1.19 2.657-2.657 2.657h-28.789c-1.468 0-2.657-1.19-2.657-2.657v-26.685c0-1.468 1.19-2.657 2.657-2.657h17.738c0.557 0 1.083 0.258 1.424 0.7s0.866 0.7 1.424 0.7h8.203c1.468 0 2.657 1.19 2.657 2.657z"></path>
    </symbol>

  </defs>
</svg>





